{"glyphs":{"0":{"ha":600,"x_min":71,"x_max":526,"o":"m 379 776 q 351 796 364 796 q 321 774 339 796 q 244 526 268 704 q 240 469 240 497 q 258 344 240 403 q 303 257 275 285 l 331 229 l 353 243 q 453 524 450 300 q 379 776 453 678 m 225 853 q 297 868 264 868 q 414 822 351 868 q 463 774 447 799 q 499 690 479 749 q 526 513 526 603 q 493 323 526 408 q 404 204 460 238 q 321 178 369 185 q 279 174 294 174 q 233 183 258 174 q 113 298 156 214 q 71 508 71 382 q 225 853 71 793 z "},"1":{"ha":432,"x_min":76,"x_max":363,"o":"m 258 869 q 272 871 263 871 q 346 844 322 871 l 363 828 l 356 571 q 342 275 349 357 q 322 179 336 193 q 274 165 308 165 q 225 179 239 165 q 202 259 208 199 q 194 472 196 319 q 186 674 192 674 q 156 656 183 672 q 121 636 129 639 q 111 635 118 635 q 88 640 99 635 q 76 653 76 646 q 143 729 76 660 q 219 826 211 801 q 235 858 226 849 q 258 869 243 867 z "},"2":{"ha":643,"x_min":78,"x_max":565,"o":"m 288 861 q 326 865 306 865 q 454 824 404 865 q 515 682 515 774 q 455 481 515 585 q 288 293 394 378 l 235 251 l 290 251 q 436 267 344 251 q 525 276 493 276 q 565 256 565 276 q 475 221 565 236 q 254 196 351 196 q 197 197 217 196 q 78 226 78 203 q 132 288 78 244 q 335 575 281 408 q 369 735 369 688 q 367 760 369 746 q 357 781 363 775 q 338 788 351 786 l 333 788 q 221 728 281 788 q 164 696 190 696 q 121 724 121 696 q 144 775 121 743 q 208 828 164 801 q 288 861 251 854 z "},"3":{"ha":643,"x_min":76,"x_max":568,"o":"m 243 818 q 300 828 268 828 q 417 788 364 828 q 469 696 469 749 q 456 643 469 676 q 428 593 442 610 q 421 581 421 583 q 456 560 421 571 q 514 521 482 553 q 568 379 568 467 q 497 214 568 276 q 424 170 461 182 q 318 158 386 158 q 228 167 258 158 q 163 204 199 176 q 107 265 138 225 q 76 318 76 304 q 92 338 76 338 q 167 290 114 338 q 308 210 258 210 q 314 210 311 210 q 319 211 317 211 q 404 376 404 224 q 371 503 403 467 q 346 515 358 515 q 329 514 336 515 q 243 506 272 506 q 197 525 197 506 q 229 568 197 533 q 297 722 297 640 l 297 763 l 275 757 q 172 689 228 747 q 132 668 153 668 q 113 679 117 668 q 111 686 111 681 q 155 756 111 713 q 243 818 199 800 z "},"4":{"ha":692,"x_min":75,"x_max":613,"o":"m 381 588 q 378 617 385 617 q 285 517 364 617 q 201 392 207 418 q 206 365 196 371 q 268 361 211 361 l 290 361 l 365 363 l 369 460 q 381 588 374 553 m 383 813 q 431 829 411 829 q 476 811 453 829 q 493 778 494 797 q 468 456 475 644 l 465 369 l 524 372 l 544 372 q 613 349 613 372 q 589 331 613 338 q 528 319 565 324 q 482 313 492 315 l 463 308 l 463 242 q 451 164 463 175 q 418 153 440 153 q 390 163 399 153 q 378 211 385 168 q 369 292 372 254 q 311 301 368 299 q 187 313 254 303 q 94 353 119 324 q 75 401 75 376 q 142 542 75 444 q 269 705 197 625 q 383 813 340 785 z "},"5":{"ha":606,"x_min":75,"x_max":531,"o":"m 139 839 q 169 846 157 846 q 199 836 183 846 q 335 819 213 828 q 452 810 425 814 q 479 794 479 806 q 396 771 479 771 q 314 775 361 771 q 228 779 256 779 l 219 779 q 213 681 218 778 q 211 626 211 661 q 247 481 211 533 q 257 466 254 469 q 268 460 260 463 q 290 457 276 457 q 389 464 306 457 q 429 465 404 465 q 483 456 465 465 q 517 422 501 447 q 531 358 531 400 q 518 296 531 322 q 419 207 486 238 q 313 189 376 189 q 263 194 279 189 q 199 235 231 203 q 167 289 167 267 q 174 303 167 299 q 194 308 183 308 q 235 288 214 308 q 321 239 282 239 q 336 240 331 239 q 381 256 364 244 q 407 293 397 268 q 417 349 417 314 q 404 401 417 386 q 385 413 393 413 q 349 406 381 413 q 263 394 301 394 q 182 410 215 394 q 76 608 89 454 q 76 621 76 613 q 75 633 75 629 q 94 765 75 700 q 139 839 114 829 z "},"6":{"ha":636,"x_min":71,"x_max":560,"o":"m 482 496 q 458 510 468 510 q 389 459 431 510 q 311 332 347 408 l 290 288 l 304 268 q 351 240 324 240 q 390 251 369 240 q 465 328 436 276 q 494 436 494 379 q 482 496 494 483 m 253 847 q 328 858 283 858 q 419 843 381 858 q 476 801 451 831 q 500 747 500 772 q 497 735 500 743 q 486 725 493 725 q 440 757 472 725 q 403 785 413 785 q 388 781 397 785 q 360 765 369 775 q 335 726 351 756 q 278 604 293 650 q 258 494 264 558 q 257 464 257 482 q 263 439 257 439 q 279 458 268 439 q 329 515 294 485 q 390 554 364 544 q 446 565 419 565 q 500 551 472 565 q 545 507 532 535 q 560 425 558 479 l 560 410 q 536 322 560 374 q 483 246 517 282 q 418 197 449 210 q 344 188 397 188 q 254 199 290 188 q 154 275 206 215 q 83 397 103 335 q 71 493 71 439 q 117 707 71 607 q 176 800 146 769 q 253 847 206 831 z "},"7":{"ha":678,"x_min":78,"x_max":603,"o":"m 401 867 q 456 871 435 871 q 517 857 489 871 q 564 796 557 836 l 564 788 q 553 665 564 757 q 533 525 542 572 q 533 506 531 510 q 551 503 536 503 q 589 489 572 503 q 602 475 601 478 q 593 464 603 472 q 560 453 576 453 q 532 446 542 453 q 510 354 525 442 q 494 228 494 267 q 479 186 494 206 q 444 167 464 167 q 379 199 408 167 q 354 324 354 228 q 356 367 354 351 l 361 438 l 321 438 q 244 468 244 438 q 325 492 244 482 q 367 501 367 497 q 383 603 368 515 q 406 717 399 690 q 415 765 415 756 q 401 783 415 779 q 342 786 388 786 l 263 786 l 194 786 q 119 789 133 786 q 92 803 104 792 q 78 822 78 817 q 215 850 78 838 q 401 867 278 857 z "},"8":{"ha":549,"x_min":71,"x_max":472,"o":"m 395 475 q 389 494 395 475 q 371 525 383 513 q 347 538 358 538 q 303 508 332 538 q 248 417 268 472 q 228 313 228 361 q 264 235 228 244 q 276 233 268 233 q 323 248 297 233 q 363 283 349 263 q 393 348 379 308 q 407 413 407 388 q 395 475 407 438 m 351 789 q 322 808 338 808 q 270 757 294 808 q 246 657 246 706 q 253 618 246 631 q 268 599 261 603 q 297 596 275 596 q 327 601 321 596 q 347 635 333 606 q 367 726 367 678 q 351 789 367 769 m 217 868 q 258 874 238 874 q 310 865 278 874 q 365 844 349 856 q 401 804 382 833 q 421 767 417 781 q 425 721 425 754 q 401 624 424 671 l 379 575 l 406 558 q 451 504 433 540 q 472 415 472 465 q 410 253 472 324 q 257 179 344 179 q 165 201 210 179 q 71 346 71 250 q 81 413 71 379 q 153 538 101 492 q 179 565 179 563 q 171 571 179 569 q 130 599 156 576 q 94 639 104 621 q 86 690 86 658 q 100 768 86 739 q 217 868 136 849 z "},"9":{"ha":617,"x_min":75,"x_max":547,"o":"m 396 796 q 364 810 382 810 q 314 785 340 810 q 269 719 288 761 q 246 583 246 669 q 256 528 246 539 q 264 521 260 521 q 297 557 268 521 q 370 672 329 599 q 411 763 411 746 q 396 796 411 781 m 446 863 q 494 889 472 889 q 518 881 506 889 q 542 845 536 868 q 547 757 547 822 l 547 722 q 542 593 547 607 q 533 388 539 585 q 528 223 531 256 q 515 181 525 190 q 471 165 500 165 q 439 176 450 165 q 406 458 418 203 l 400 561 l 367 519 q 313 469 339 483 q 244 449 288 454 q 221 447 236 447 q 118 490 156 447 q 75 614 81 533 l 75 635 q 135 812 75 744 q 293 879 194 879 q 338 875 314 879 q 406 856 381 868 q 425 849 419 849 q 446 863 432 849 z "},"\u0000":{"ha":347,"x_min":0,"x_max":0,"o":""},"\r":{"ha":347,"x_min":0,"x_max":0,"o":""}," ":{"ha":347,"x_min":0,"x_max":0,"o":""},"!":{"ha":281,"x_min":69,"x_max":211,"o":"m 101 831 q 149 847 121 847 q 197 826 181 847 q 211 778 211 808 q 208 707 211 774 q 186 386 194 415 q 160 364 179 368 q 150 363 150 363 q 133 361 144 361 q 88 403 100 361 q 71 564 75 444 q 69 642 69 592 q 101 831 69 803 m 100 260 q 150 274 122 274 q 196 258 178 274 q 211 228 211 244 q 186 190 211 207 q 132 174 161 174 q 86 189 103 174 q 69 219 69 203 q 100 260 69 242 z "},"\"":{"ha":422,"x_min":74,"x_max":351,"o":"m 275 847 q 292 849 281 849 q 340 833 322 849 q 351 779 351 824 q 350 719 351 746 q 342 610 344 614 q 313 603 338 603 q 243 750 243 603 l 243 758 q 251 826 244 807 q 275 847 257 844 m 74 799 q 82 838 74 829 q 111 846 90 846 q 163 828 144 846 q 178 802 175 817 q 182 735 181 788 q 183 640 183 693 q 183 626 185 631 q 176 621 181 622 q 158 618 171 619 l 153 618 q 88 706 110 618 q 74 799 74 756 z "},"%":{"ha":801,"x_min":75,"x_max":726,"o":"m 297 678 q 281 706 289 706 q 267 697 275 706 q 242 638 253 682 q 232 557 232 594 q 239 518 232 529 q 250 510 244 510 q 284 555 267 510 q 301 643 301 600 q 297 678 301 664 m 561 896 q 583 899 568 899 q 631 889 608 899 q 658 867 654 879 q 660 854 660 863 q 576 660 660 825 q 415 299 478 458 q 369 197 393 242 q 336 149 346 153 q 311 144 324 144 q 283 154 292 144 q 279 172 279 158 q 328 360 279 225 q 436 647 397 557 q 461 722 461 710 q 457 728 461 728 q 450 725 456 728 q 396 711 440 719 l 356 703 l 363 676 q 367 636 367 661 q 353 538 367 579 q 326 493 344 510 q 229 451 289 451 q 113 503 161 451 q 83 549 90 526 q 75 617 75 572 q 174 778 75 747 q 231 788 207 788 q 306 768 274 788 q 360 754 328 754 q 438 775 396 754 q 492 809 478 796 q 524 854 507 822 q 561 896 542 889 m 650 426 q 631 432 640 449 q 615 344 615 406 q 625 300 615 300 q 629 303 626 300 q 654 394 654 331 q 650 426 654 414 m 563 499 q 611 510 589 510 q 676 485 644 510 q 726 386 726 446 q 714 319 726 356 q 692 267 703 283 q 660 239 681 251 q 593 221 629 221 q 519 245 551 221 q 476 310 486 269 q 472 347 472 328 q 494 431 472 386 q 523 474 508 460 q 563 499 538 489 z "},"&":{"ha":518,"x_min":75,"x_max":443,"o":"m 297 865 q 310 885 304 882 q 339 889 317 889 q 385 866 376 889 q 397 735 393 843 q 399 664 399 707 q 391 594 399 611 q 360 571 383 578 q 340 568 346 568 q 290 617 307 568 q 261 667 282 642 q 229 693 240 693 l 226 693 q 210 663 217 690 q 203 606 203 636 l 203 593 q 217 541 206 556 q 257 526 229 526 q 279 528 271 526 q 289 528 283 528 q 297 529 294 529 q 343 508 343 529 q 313 479 343 493 q 260 437 285 467 q 225 375 235 407 q 217 333 217 350 q 218 329 217 329 q 274 382 225 329 l 329 442 l 371 444 q 382 445 375 444 q 392 446 389 446 q 429 426 411 446 q 443 379 443 408 q 442 331 443 353 q 414 111 432 131 q 371 96 401 96 q 347 103 354 96 q 324 169 339 113 q 304 269 310 226 l 299 311 l 281 293 q 176 251 236 251 q 129 271 144 251 q 114 321 114 290 q 160 446 114 381 l 178 471 l 149 481 q 97 519 121 490 q 78 551 82 540 q 75 597 75 563 q 131 733 75 693 q 214 753 157 753 q 256 747 240 753 l 276 740 l 282 790 q 297 865 288 839 z "},"'":{"ha":281,"x_min":74,"x_max":214,"o":"m 103 846 q 156 860 121 860 q 189 851 181 860 q 196 761 196 842 l 196 724 l 196 686 q 204 579 196 603 q 199 542 214 551 q 169 532 188 532 q 133 543 149 532 q 82 668 104 565 q 74 747 74 710 q 103 846 74 822 z "},"(":{"ha":433,"x_min":71,"x_max":358,"o":"m 260 876 q 276 878 265 878 q 328 864 304 878 q 356 832 353 850 q 343 794 358 817 q 225 376 225 603 q 250 208 225 283 q 297 99 263 171 q 324 36 324 44 q 317 22 324 29 q 278 8 303 8 q 174 75 235 8 q 90 215 114 142 q 71 392 71 281 q 85 553 71 488 q 162 768 108 669 q 260 876 215 867 z "},")":{"ha":404,"x_min":78,"x_max":331,"o":"m 138 865 l 156 865 q 217 843 199 861 q 321 578 286 776 q 331 458 331 524 q 301 242 331 350 q 255 139 288 192 q 190 64 222 86 q 135 44 163 44 q 113 54 117 44 l 113 56 q 146 117 113 65 q 194 208 182 169 q 208 321 206 247 l 208 353 q 110 749 208 531 q 78 838 78 819 q 138 865 78 865 z "},"+":{"ha":626,"x_min":76,"x_max":549,"o":"m 275 761 q 311 774 286 774 q 383 740 364 774 q 392 636 392 724 l 392 547 l 460 543 q 529 533 510 540 q 549 513 549 526 q 456 481 549 486 l 394 478 l 394 372 q 393 280 394 297 q 382 256 392 263 q 347 246 368 246 q 311 258 322 246 q 256 432 283 288 l 247 472 l 174 471 l 158 471 q 76 500 76 471 q 175 531 76 521 q 242 542 236 539 q 249 610 249 546 q 275 761 249 732 z "},",":{"ha":308,"x_min":75,"x_max":232,"o":"m 119 315 q 150 322 125 322 q 218 306 201 322 q 232 254 232 293 q 221 186 232 215 q 176 114 211 157 q 124 65 140 71 q 113 64 121 64 q 87 71 99 64 q 75 88 75 78 q 90 133 75 100 q 108 236 104 165 q 119 315 114 307 z "},"-":{"ha":418,"x_min":71,"x_max":344,"o":"m 154 489 q 232 494 194 494 q 328 467 300 494 q 344 439 344 453 q 247 399 344 407 q 174 390 183 393 l 169 390 q 125 402 153 390 q 85 426 97 414 q 71 451 71 443 q 154 489 71 476 z "},".":{"ha":310,"x_min":75,"x_max":235,"o":"m 104 260 q 149 267 125 267 q 211 250 192 267 q 235 211 235 231 q 217 174 235 192 q 164 151 194 151 q 110 165 136 151 q 78 197 83 179 q 75 213 75 208 q 104 260 75 246 z "},"/":{"ha":497,"x_min":74,"x_max":419,"o":"m 307 889 q 335 896 315 896 q 392 877 364 896 q 419 838 419 858 q 419 834 419 836 q 418 831 418 832 q 318 578 400 744 q 214 357 243 426 q 139 207 168 251 q 111 188 125 188 q 106 188 110 188 q 100 189 103 189 l 74 192 l 75 242 q 155 560 76 332 q 289 860 233 788 q 301 882 306 882 q 307 889 297 882 z "},":":{"ha":299,"x_min":74,"x_max":228,"o":"m 99 668 q 147 681 119 681 q 219 647 208 681 q 221 636 221 643 q 199 601 221 615 q 146 586 176 586 q 121 589 129 586 q 74 632 74 601 q 99 668 74 653 m 119 272 q 154 279 132 279 q 200 269 179 279 q 226 244 221 260 q 228 235 228 242 q 203 193 228 213 q 147 174 178 174 q 142 174 144 174 q 136 175 139 175 q 74 218 74 183 q 119 272 74 247 z "},";":{"ha":293,"x_min":71,"x_max":218,"o":"m 110 526 q 154 531 118 531 l 164 531 q 206 514 189 531 q 218 488 218 501 q 196 454 218 468 q 144 440 174 440 q 92 456 114 440 q 75 485 75 468 q 110 526 75 514 m 119 364 q 154 371 136 371 q 201 354 189 371 q 208 325 208 344 q 178 217 208 282 q 136 148 153 165 q 97 131 119 131 q 71 150 71 131 q 78 185 71 160 q 88 274 88 217 q 93 339 88 324 q 119 364 99 354 z "},"=":{"ha":588,"x_min":72,"x_max":517,"o":"m 85 663 q 208 665 96 665 l 288 665 q 451 662 419 664 q 493 650 482 660 q 510 626 510 635 q 461 596 510 610 q 229 567 372 568 q 156 570 172 567 q 118 586 139 574 q 82 615 86 608 q 72 642 72 626 q 85 663 72 658 m 89 471 q 118 481 93 481 q 176 474 147 481 q 349 461 211 467 q 467 456 442 458 q 501 443 492 453 q 517 418 517 428 q 344 381 517 381 q 200 388 244 381 q 125 417 156 394 q 86 461 86 444 q 89 471 86 463 z "},"?":{"ha":621,"x_min":76,"x_max":546,"o":"m 260 886 q 308 896 289 896 q 369 886 325 896 q 531 761 486 857 q 546 692 546 726 q 390 453 546 568 q 319 390 372 440 q 244 344 272 344 q 211 357 228 344 q 196 390 196 368 q 213 438 196 413 q 257 479 229 464 q 381 611 336 524 q 411 717 411 671 q 350 815 411 815 q 261 768 310 815 q 196 683 218 726 q 169 640 181 653 q 142 628 158 628 q 117 632 131 628 q 76 674 76 642 q 103 753 76 701 q 260 886 150 846 m 228 281 q 260 286 240 286 q 305 276 285 286 q 325 249 325 265 q 303 217 325 233 q 258 201 281 201 q 214 214 231 201 q 197 244 197 226 q 228 281 197 268 z "},"@":{"ha":938,"x_min":72,"x_max":864,"o":"m 492 592 q 472 603 476 603 q 454 588 465 603 q 421 432 421 540 l 421 410 q 433 406 422 392 q 478 488 449 426 q 507 563 507 550 q 492 592 507 583 m 319 890 q 436 903 360 903 q 560 892 504 903 q 726 816 654 871 q 835 683 799 761 q 864 560 861 625 l 864 543 q 840 394 864 465 q 779 293 817 324 q 690 263 743 263 q 586 297 635 263 q 525 386 538 332 q 523 395 524 392 q 521 402 522 399 q 519 407 519 406 q 517 408 518 408 q 490 379 510 408 q 381 324 449 324 q 257 471 257 324 q 343 651 257 607 q 421 667 372 667 q 499 653 467 667 q 529 644 529 640 q 547 669 529 649 q 600 689 565 689 q 656 669 636 689 q 671 642 671 654 q 669 626 671 632 q 660 492 665 604 q 658 421 658 460 q 671 350 658 379 q 701 317 686 317 q 733 340 714 317 q 772 421 761 376 q 782 546 782 465 l 782 586 q 778 642 782 626 q 763 683 775 658 q 705 765 740 728 q 632 819 669 803 q 453 857 550 857 q 414 854 439 857 q 342 833 369 847 q 283 781 315 818 q 181 514 189 674 q 180 497 181 508 q 179 481 179 486 q 205 342 179 401 q 289 224 231 282 q 507 118 392 118 q 557 124 535 118 q 642 167 596 133 q 707 200 688 200 l 711 200 q 735 185 735 197 q 714 149 735 172 q 490 67 643 67 q 311 107 390 67 q 200 187 256 135 q 119 285 144 239 q 72 490 72 379 q 121 707 72 606 q 319 890 188 847 z "},"A":{"ha":654,"x_min":75,"x_max":578,"o":"m 357 631 q 336 667 347 667 q 319 658 328 667 q 311 642 311 650 q 289 581 311 632 q 244 459 271 539 q 218 369 218 379 q 285 364 218 364 q 411 374 401 364 q 413 382 413 375 q 357 631 413 432 m 264 847 q 308 868 282 868 q 342 861 321 868 q 372 818 372 851 q 365 782 372 806 q 354 743 354 751 q 385 731 354 740 q 470 649 439 715 q 536 407 501 583 q 568 267 561 278 q 578 222 578 247 q 567 183 578 196 q 539 167 554 167 q 532 167 538 167 q 524 168 526 168 q 476 192 490 174 q 443 276 463 211 l 431 318 l 356 314 q 240 310 293 310 l 200 310 l 182 244 q 149 172 165 179 q 119 167 133 167 q 88 181 101 167 q 75 215 75 193 q 78 261 75 219 q 179 678 92 457 q 230 798 215 769 q 264 847 244 826 z "},"B":{"ha":617,"x_min":72,"x_max":544,"o":"m 407 489 q 372 508 393 503 q 357 510 368 510 q 276 494 321 510 q 225 465 231 479 q 211 374 221 457 q 206 314 206 321 q 208 293 206 301 q 219 275 210 285 q 235 260 228 265 q 264 240 242 256 q 326 219 294 219 q 440 311 397 219 q 451 363 451 338 q 450 389 451 379 q 407 489 443 457 m 351 693 q 338 731 351 731 q 268 640 313 731 q 236 554 236 576 q 244 544 236 544 q 271 553 254 544 q 329 611 307 572 q 351 693 351 650 m 126 828 q 145 854 138 849 q 171 860 153 860 q 211 844 199 860 q 221 819 221 835 q 220 807 221 814 q 218 787 219 800 q 215 763 217 774 q 208 694 208 707 q 213 682 208 682 q 239 715 217 682 q 347 794 292 794 q 399 779 371 794 q 453 678 453 747 q 419 581 453 626 q 413 568 413 571 q 439 550 413 564 q 543 397 535 501 q 544 368 544 388 q 489 247 544 303 q 416 192 446 204 q 329 179 386 179 q 272 183 288 179 q 238 200 257 186 q 206 218 211 218 q 200 201 200 218 q 179 172 200 172 q 157 179 171 172 q 125 207 143 185 q 90 340 107 235 q 72 519 72 446 q 74 550 72 542 l 82 654 q 126 828 88 764 z "},"C":{"ha":657,"x_min":74,"x_max":583,"o":"m 214 824 q 306 844 260 844 q 469 736 422 844 q 481 696 481 713 q 460 679 481 679 q 417 714 442 679 q 365 763 392 750 l 340 776 l 319 756 q 276 680 297 733 q 246 572 254 626 q 240 490 240 535 q 276 310 240 383 q 361 236 311 236 q 422 269 392 236 q 496 399 447 297 q 568 506 547 506 q 579 500 574 506 q 583 489 583 496 q 543 374 583 467 q 440 215 494 263 q 322 176 394 176 q 314 177 319 176 q 306 178 308 178 q 176 236 232 189 q 103 350 132 274 q 74 507 74 426 q 214 824 74 757 z "},"D":{"ha":557,"x_min":71,"x_max":485,"o":"m 311 683 q 250 725 275 725 q 206 671 222 725 q 196 449 196 642 q 201 276 196 319 q 222 215 208 215 q 250 229 229 215 q 381 481 381 322 q 379 521 381 507 q 311 683 369 617 m 89 838 q 126 851 101 851 q 164 838 150 851 q 178 796 178 824 q 189 763 178 763 q 206 767 194 763 q 250 775 226 775 q 394 706 324 775 q 481 543 464 638 q 485 493 485 518 q 408 289 485 385 q 297 194 364 233 q 179 154 229 154 q 146 158 153 154 q 132 178 139 161 q 102 297 121 203 q 76 456 83 390 q 71 590 71 494 q 72 676 71 647 q 77 801 75 775 q 89 838 79 828 z "},"E":{"ha":569,"x_min":74,"x_max":490,"o":"m 151 847 q 189 847 160 853 q 314 840 213 843 q 444 811 444 836 q 364 786 444 788 q 278 782 306 786 l 247 776 l 238 711 q 204 453 228 653 l 199 411 l 226 415 q 325 425 283 425 q 369 411 369 425 q 365 403 369 407 q 235 364 350 385 l 203 358 l 206 321 q 244 232 210 250 q 293 224 258 224 q 394 236 339 224 q 463 246 435 246 q 490 233 490 246 q 421 192 490 214 q 289 169 351 169 q 279 170 286 169 q 268 171 272 171 q 86 296 121 181 q 74 421 74 335 q 104 701 74 568 q 151 847 133 839 z "},"F":{"ha":536,"x_min":71,"x_max":458,"o":"m 117 839 q 156 849 131 853 q 214 846 175 846 l 242 846 q 339 847 279 847 q 433 841 407 847 q 458 818 458 835 q 442 806 458 810 q 367 796 426 803 q 244 788 289 788 q 210 779 215 788 q 181 454 199 763 l 175 363 l 236 363 q 312 356 292 361 q 332 338 332 351 q 229 313 332 313 l 183 313 l 186 244 l 186 217 q 178 166 186 178 q 142 154 169 154 q 117 158 124 154 q 101 181 110 163 q 72 435 79 228 q 71 511 71 461 q 83 724 71 632 q 117 839 96 817 z "},"G":{"ha":676,"x_min":74,"x_max":604,"o":"m 272 836 q 328 842 290 842 q 440 826 390 842 q 520 772 481 814 q 560 701 560 729 q 556 689 560 693 q 533 678 546 678 q 461 729 508 678 q 417 774 428 767 q 383 781 406 781 q 263 698 313 781 q 211 500 213 615 q 245 338 211 417 q 326 236 279 260 q 374 226 346 226 q 429 242 407 226 q 489 340 461 267 q 524 493 517 413 l 529 549 l 479 553 q 439 556 451 556 q 413 553 421 556 q 404 551 410 551 q 381 558 392 551 q 369 574 369 565 q 472 604 369 596 q 515 606 488 606 q 600 578 586 606 q 604 549 604 569 q 584 408 604 497 q 542 275 564 318 q 468 194 511 219 q 360 169 425 169 l 338 169 q 249 188 283 172 q 176 240 214 203 q 119 319 146 269 q 82 413 92 369 q 74 494 74 450 q 118 700 74 607 q 178 787 144 757 q 272 836 213 817 z "},"H":{"ha":613,"x_min":69,"x_max":543,"o":"m 101 832 q 128 846 110 846 q 167 831 147 846 q 192 796 188 817 q 194 717 194 782 q 192 563 194 676 l 186 354 l 210 358 q 238 362 217 360 q 265 365 258 364 q 360 378 289 369 l 422 386 l 426 518 q 456 815 435 753 q 467 836 461 832 q 489 843 472 840 l 496 843 q 529 829 515 843 q 543 663 543 814 q 540 357 543 635 q 536 207 539 236 q 524 168 533 178 q 485 154 510 154 q 449 174 458 154 q 435 261 439 194 q 421 333 431 333 q 356 326 408 333 q 243 315 333 324 l 189 311 l 183 253 q 167 182 179 194 q 129 169 154 169 q 103 178 108 169 q 69 501 69 217 q 101 832 69 772 z "},"I":{"ha":260,"x_min":71,"x_max":190,"o":"m 104 832 q 143 844 114 844 q 181 835 167 844 q 190 797 190 829 q 185 668 190 758 q 178 354 178 525 q 175 219 178 242 q 161 188 172 196 q 119 176 143 176 q 92 185 97 176 q 76 308 86 192 q 71 464 71 400 q 81 705 71 593 q 104 832 90 817 z "},"J":{"ha":546,"x_min":75,"x_max":475,"o":"m 325 842 q 356 851 333 851 q 422 829 397 851 q 468 625 454 797 q 475 469 475 554 q 443 257 475 321 q 366 171 418 204 q 257 138 314 138 l 253 138 q 106 244 158 138 q 75 382 75 310 q 90 431 75 425 q 101 433 99 433 q 125 374 121 433 q 200 213 132 269 q 257 189 231 189 q 331 254 308 189 q 339 371 339 278 q 332 500 339 442 q 321 692 326 539 q 318 792 318 783 q 325 842 318 835 z "},"K":{"ha":547,"x_min":71,"x_max":471,"o":"m 88 840 q 113 858 99 858 q 129 857 122 858 q 185 819 172 850 q 204 678 199 788 q 211 579 210 579 q 292 647 214 579 q 397 715 369 715 q 424 708 407 715 q 436 689 436 700 q 332 572 436 658 q 251 507 278 528 q 232 485 228 492 q 342 425 236 479 q 471 347 471 361 q 465 338 471 346 q 439 328 457 328 q 296 382 400 328 l 206 429 l 208 299 q 210 222 210 267 q 196 157 210 167 q 164 149 181 146 q 147 161 153 151 q 131 211 140 171 q 76 564 115 271 q 71 689 71 611 l 71 719 q 88 840 74 821 z "},"L":{"ha":493,"x_min":71,"x_max":415,"o":"m 89 838 q 111 844 96 844 q 132 843 124 844 q 185 819 167 840 l 203 799 l 199 528 q 197 331 197 453 q 199 235 197 240 q 206 216 201 221 q 225 211 210 211 q 314 224 232 211 q 383 231 363 231 q 415 219 415 231 q 394 196 415 211 q 306 169 379 185 q 197 154 233 154 q 108 194 126 154 q 84 377 97 219 q 71 651 71 535 l 71 697 q 89 838 71 814 z "},"M":{"ha":722,"x_min":71,"x_max":654,"o":"m 121 844 q 135 847 129 847 q 192 825 167 847 q 285 685 204 814 q 368 557 365 557 q 415 612 372 557 q 481 704 457 667 q 554 810 532 783 q 594 836 576 836 q 624 825 606 836 l 647 811 l 651 492 q 654 236 654 286 q 653 200 654 217 q 653 174 653 183 l 653 164 q 629 147 650 156 q 607 143 619 143 q 565 171 576 143 q 536 508 546 221 l 532 671 l 482 600 q 412 513 435 533 q 363 492 389 492 q 336 497 346 492 q 307 524 326 503 q 242 606 272 558 q 204 658 208 658 q 186 394 192 658 q 175 169 182 185 q 142 153 167 153 q 113 167 121 153 q 83 317 96 197 q 71 549 71 438 q 75 642 71 603 q 121 844 92 833 z "},"N":{"ha":669,"x_min":69,"x_max":600,"o":"m 99 847 q 129 861 117 861 q 225 763 163 861 q 371 557 306 638 q 436 483 397 524 q 479 442 475 442 q 483 631 483 442 q 490 817 483 790 q 533 844 496 844 l 535 844 q 577 833 568 844 q 586 765 586 821 q 583 663 586 751 q 581 551 581 576 q 599 226 581 471 q 599 215 599 222 q 600 206 600 208 q 590 165 600 176 q 554 151 579 153 l 544 151 q 528 156 533 151 q 517 178 524 161 q 503 260 508 200 q 495 309 500 299 q 465 339 490 319 q 327 465 406 388 q 219 582 249 543 l 175 640 q 179 402 176 561 q 183 163 182 243 l 168 150 q 138 140 154 140 q 113 150 121 140 q 83 317 96 169 q 69 621 69 464 q 99 847 69 825 z "},"O":{"ha":665,"x_min":74,"x_max":596,"o":"m 425 768 q 368 790 401 785 q 350 792 361 792 q 307 764 333 792 q 232 615 250 706 q 222 515 222 571 q 249 343 222 424 q 315 236 275 263 q 376 213 351 213 q 453 268 418 213 q 507 482 501 343 l 507 514 q 425 768 507 713 m 261 842 q 324 851 292 851 q 428 825 371 851 q 556 714 515 783 q 596 531 596 644 q 594 488 596 503 q 559 319 589 394 q 482 203 529 243 q 325 149 425 156 q 310 148 319 149 q 299 147 301 147 q 235 163 269 147 q 128 271 168 193 q 74 517 74 378 q 100 676 74 607 q 166 781 122 736 q 261 842 210 825 z "},"P":{"ha":583,"x_min":71,"x_max":511,"o":"m 365 719 q 347 736 354 736 q 315 715 339 736 q 252 628 275 681 q 214 481 229 575 q 204 404 204 426 q 228 372 204 382 q 269 361 254 361 q 340 404 297 361 q 374 447 367 432 q 389 493 382 461 q 397 572 397 533 q 386 654 397 604 q 365 719 375 704 m 119 878 q 149 886 132 886 q 201 863 181 886 q 218 790 218 842 q 228 738 218 738 q 238 747 232 738 q 271 776 242 756 q 342 796 301 796 q 464 744 419 796 q 511 581 511 689 l 511 561 q 438 389 503 457 q 261 315 365 315 l 201 315 l 206 250 l 211 185 l 188 168 q 157 156 171 156 q 117 197 131 156 q 71 525 71 322 q 119 878 71 843 z "},"Q":{"ha":761,"x_min":74,"x_max":683,"o":"m 457 797 q 404 810 429 810 q 316 769 356 810 q 256 658 276 729 q 233 499 233 586 q 258 340 233 407 q 306 264 272 301 q 367 218 339 226 q 406 213 389 213 q 419 214 415 213 q 460 231 438 217 q 482 254 482 246 q 453 290 482 258 q 424 336 424 325 q 446 363 424 347 q 485 378 468 378 q 517 365 499 378 q 532 358 526 358 q 557 431 542 358 q 568 543 568 486 q 544 694 568 643 q 457 797 508 772 m 276 864 q 338 872 306 872 q 476 840 407 872 q 582 758 544 808 q 644 538 644 669 q 636 451 644 494 q 610 346 624 382 q 597 300 597 318 q 640 244 597 288 q 683 192 683 201 q 667 172 683 183 q 639 161 651 161 q 585 190 628 161 q 542 214 549 214 q 529 208 536 214 q 388 161 464 161 q 179 247 260 161 q 78 490 99 333 q 74 553 74 522 q 133 771 74 681 q 188 830 160 811 q 276 864 217 849 z "},"R":{"ha":638,"x_min":71,"x_max":565,"o":"m 418 776 q 381 801 401 801 q 328 781 361 801 q 240 678 253 735 q 229 515 235 657 q 226 418 226 421 q 235 381 226 381 q 305 411 254 381 q 379 467 356 442 q 449 661 449 543 q 418 776 449 732 m 143 875 q 167 879 154 879 q 219 866 194 879 q 246 835 244 853 q 253 825 249 825 q 292 842 256 825 q 367 863 329 863 l 378 863 q 481 831 436 861 q 549 751 525 801 q 565 656 565 711 q 549 550 565 596 q 351 363 497 422 q 296 338 300 342 q 302 328 293 336 q 326 310 311 319 q 415 281 365 286 q 470 272 457 276 q 483 257 483 267 q 411 232 483 232 q 251 271 307 232 q 232 281 236 281 q 226 231 226 281 q 219 177 226 188 q 175 161 211 167 q 156 160 167 160 q 129 176 140 160 q 88 319 106 213 q 71 531 71 425 q 72 585 71 568 q 96 799 81 735 q 143 875 111 863 z "},"S":{"ha":565,"x_min":75,"x_max":496,"o":"m 246 835 q 329 846 286 846 q 418 831 385 846 q 494 679 488 794 q 495 666 494 675 q 496 654 496 657 q 487 607 496 621 q 456 590 478 593 q 432 593 433 588 q 429 653 432 624 q 408 746 426 707 q 365 788 389 785 l 356 788 q 250 686 297 788 q 211 496 211 601 q 225 419 211 442 q 246 396 240 396 q 294 410 256 396 q 382 425 340 425 q 438 414 415 425 q 488 321 488 388 q 481 279 488 294 q 410 208 465 242 q 310 174 354 174 q 247 197 281 174 q 213 238 213 219 q 214 244 213 243 q 233 253 219 253 q 275 238 256 253 q 306 228 289 228 q 358 257 335 228 q 382 322 382 286 q 376 354 382 339 q 356 372 368 372 q 311 360 344 372 q 232 344 272 344 q 161 360 192 344 q 98 423 121 379 q 75 522 75 467 q 125 722 75 631 q 246 835 175 813 z "},"T":{"ha":614,"x_min":78,"x_max":536,"o":"m 181 825 q 392 831 276 831 q 518 824 506 831 q 536 801 536 814 q 521 785 536 789 q 429 775 506 781 l 354 771 l 353 660 q 342 369 351 600 q 324 182 335 203 q 292 163 317 168 q 279 161 288 161 q 239 243 244 161 q 238 322 238 257 q 247 715 238 583 l 250 768 l 188 768 q 78 800 78 768 q 97 816 78 811 q 181 825 115 821 z "},"U":{"ha":604,"x_min":71,"x_max":533,"o":"m 88 839 q 129 853 100 853 q 169 842 157 853 q 183 810 179 832 q 192 692 186 788 q 219 369 204 446 q 278 250 233 293 q 310 222 300 228 q 342 217 321 217 q 373 222 363 217 q 400 244 383 226 q 443 339 426 272 q 456 423 454 382 q 461 614 458 464 q 467 838 464 815 q 485 853 471 853 q 506 840 500 853 q 524 746 510 833 q 533 558 533 682 q 518 333 533 401 q 419 185 493 224 q 325 160 372 160 q 207 203 265 160 q 146 273 179 224 q 99 365 113 322 q 71 636 71 446 q 72 668 71 646 q 72 701 72 690 q 88 839 75 826 z "},"V":{"ha":615,"x_min":76,"x_max":542,"o":"m 90 846 q 113 853 108 853 q 142 846 117 853 q 175 826 168 839 q 262 600 182 813 q 353 351 342 388 q 372 311 365 311 q 381 329 376 311 q 465 699 421 492 q 499 828 490 817 q 521 838 507 838 q 540 829 533 838 q 542 817 542 828 q 419 263 542 729 q 356 175 396 175 q 344 176 349 175 q 278 231 308 183 q 207 389 247 279 q 126 635 169 492 q 78 808 82 778 q 76 828 76 817 q 90 846 76 840 z "},"W":{"ha":889,"x_min":75,"x_max":815,"o":"m 75 804 q 83 838 75 829 q 122 846 92 846 q 171 829 154 846 q 268 446 214 786 q 294 338 286 338 q 304 360 297 338 q 394 665 357 563 q 418 751 418 726 q 429 781 418 772 q 468 789 440 789 q 517 774 503 789 q 548 715 536 753 q 618 453 560 678 q 657 325 653 325 q 663 332 658 325 q 711 592 679 365 q 740 784 732 743 q 761 836 749 825 q 783 844 769 844 q 814 828 807 844 q 815 811 815 825 q 813 776 815 789 q 722 294 751 401 q 686 190 699 208 q 621 163 668 163 q 603 165 614 163 q 493 344 543 189 q 460 471 479 388 q 440 569 440 554 q 437 579 440 576 q 429 579 433 582 q 422 569 425 576 q 416 547 421 567 q 402 493 411 528 q 386 431 393 458 q 336 256 351 299 q 306 201 321 214 q 267 188 288 188 q 225 207 243 188 q 149 386 190 240 q 85 706 108 532 q 75 804 75 774 z "},"X":{"ha":699,"x_min":76,"x_max":621,"o":"m 488 861 q 519 875 513 875 q 557 862 533 875 q 589 836 581 849 q 597 817 597 824 q 590 796 597 813 q 446 589 574 764 q 406 529 415 549 q 476 428 406 524 q 588 279 546 332 q 621 210 621 238 q 585 167 621 167 q 568 168 574 167 q 499 213 538 172 q 338 415 461 254 q 335 417 336 417 q 224 265 313 417 q 170 190 192 213 q 128 168 149 168 q 117 169 121 168 q 82 201 82 178 q 110 269 82 222 q 128 300 115 278 q 161 354 142 322 q 194 410 181 386 l 256 515 l 199 596 q 113 726 150 661 q 76 810 76 792 q 99 838 76 824 q 142 853 121 853 q 181 830 160 853 q 263 722 201 807 l 322 639 l 360 700 q 488 861 447 838 z "},"Y":{"ha":650,"x_min":79,"x_max":569,"o":"m 501 878 q 536 889 513 889 q 565 879 557 889 q 569 869 569 875 q 519 796 569 853 q 447 714 469 742 l 407 664 l 411 431 q 414 282 414 303 q 406 191 414 208 q 368 174 397 174 l 353 174 q 304 190 315 174 q 279 347 293 210 q 265 589 265 483 l 265 707 l 217 729 q 128 785 178 747 q 79 835 79 824 q 90 849 79 844 q 114 853 100 853 q 240 800 146 853 l 338 746 l 414 806 q 501 878 496 872 z "},"Z":{"ha":685,"x_min":78,"x_max":606,"o":"m 419 885 q 464 888 458 888 q 507 878 488 888 q 556 824 556 853 q 490 681 556 810 q 382 485 424 553 q 369 458 369 465 q 414 453 369 453 q 482 432 482 453 q 421 403 482 413 q 338 383 350 392 q 297 315 326 374 q 261 235 261 243 q 281 225 261 225 q 290 226 283 225 q 300 226 296 226 q 542 244 472 244 q 606 226 606 244 q 554 199 606 215 q 389 181 536 193 q 193 169 242 169 l 182 169 q 138 214 138 178 q 140 233 138 219 q 179 361 153 299 q 176 372 182 368 q 147 378 171 375 q 97 401 97 385 q 101 410 97 406 q 188 431 119 428 q 210 439 203 431 q 235 488 217 447 q 365 732 294 614 q 396 796 396 785 q 388 801 396 801 q 375 800 381 801 q 161 775 228 775 q 104 792 128 775 q 78 818 78 808 q 90 832 78 825 q 222 857 100 838 q 419 885 344 876 z "},"a":{"ha":644,"x_min":75,"x_max":574,"o":"m 394 638 q 350 644 369 644 q 232 546 268 644 q 215 439 215 500 q 240 354 215 354 l 242 354 q 303 422 254 356 q 385 547 353 489 q 422 622 422 615 q 394 638 422 631 m 485 779 q 508 789 497 789 q 545 779 524 789 q 572 760 567 769 q 574 749 574 758 q 557 603 574 717 q 532 313 536 454 q 521 161 526 167 q 485 151 511 151 q 460 157 471 151 q 426 233 442 168 q 407 361 410 299 q 401 417 404 411 l 400 417 q 354 368 392 417 q 232 286 293 286 q 206 288 215 286 q 94 372 132 297 q 78 416 81 399 q 75 478 75 433 q 96 586 76 543 q 285 710 153 710 q 379 696 324 710 q 438 682 428 682 q 457 725 442 682 q 485 779 471 768 z "},"b":{"ha":549,"x_min":72,"x_max":478,"o":"m 346 513 q 328 531 336 531 q 281 489 315 531 q 228 408 246 447 q 204 339 204 357 q 233 296 204 317 q 290 274 261 274 q 364 360 349 274 q 365 382 365 365 q 346 513 365 468 m 185 911 q 201 914 190 914 q 249 896 228 914 q 257 872 257 888 q 233 706 257 851 q 207 526 207 547 q 221 538 207 519 q 335 589 257 589 q 407 571 376 589 q 458 510 439 553 q 478 419 478 467 q 461 343 478 376 q 389 255 433 286 q 294 224 344 224 q 232 238 261 224 q 199 251 204 251 q 196 231 196 251 q 181 199 196 210 q 142 188 165 188 q 111 197 121 188 q 88 271 103 208 q 72 440 72 331 q 119 806 72 653 q 185 911 147 897 z "},"c":{"ha":631,"x_min":74,"x_max":557,"o":"m 249 768 q 288 771 276 771 q 406 732 364 771 q 442 650 442 699 q 407 603 442 603 q 387 613 394 603 q 368 656 379 624 q 308 710 347 710 q 259 640 283 710 q 235 501 235 571 q 265 345 235 417 q 329 274 294 274 q 381 310 346 274 q 446 399 415 347 q 501 476 482 456 q 538 496 519 496 q 557 483 557 496 q 507 375 557 454 q 417 260 457 296 q 278 208 358 208 q 199 226 233 208 q 90 365 132 261 q 74 492 75 406 q 88 616 74 571 q 140 704 101 661 q 249 768 189 758 z "},"d":{"ha":653,"x_min":75,"x_max":583,"o":"m 375 503 q 343 508 368 508 q 306 503 321 508 q 272 468 290 497 q 246 407 254 439 q 240 360 240 379 q 256 290 240 306 q 281 296 265 279 q 331 376 296 314 q 375 467 365 439 q 375 503 385 497 m 474 896 q 501 911 483 911 q 521 910 513 911 q 571 890 556 906 q 581 869 579 883 q 583 803 583 856 q 579 535 583 739 l 572 193 l 556 179 q 517 165 540 165 q 469 186 490 165 q 428 308 439 217 l 422 356 l 396 311 q 340 242 367 265 q 308 220 319 224 q 251 217 296 217 q 169 228 199 217 q 113 269 139 239 q 82 315 89 296 q 75 374 75 335 q 132 518 75 460 q 281 575 186 575 q 361 564 317 575 q 406 553 403 553 q 418 589 410 553 q 431 661 426 625 q 474 896 456 867 z "},"e":{"ha":649,"x_min":74,"x_max":576,"o":"m 383 682 q 369 732 383 718 q 350 746 356 746 q 317 730 340 746 q 288 701 294 714 q 261 629 274 681 q 249 547 249 578 q 253 528 249 531 q 263 525 258 525 q 317 554 283 525 q 369 618 351 583 q 383 682 383 644 m 225 800 q 315 818 265 818 q 439 774 399 818 q 471 689 471 740 q 423 565 471 625 q 303 483 375 504 l 261 471 l 265 443 q 286 378 271 408 q 327 319 299 350 q 367 288 356 288 q 469 428 403 288 q 538 536 519 531 q 556 539 551 539 q 576 515 576 539 q 558 438 576 496 q 465 268 519 315 q 382 231 433 239 q 324 225 340 225 q 240 242 272 225 q 177 292 215 254 q 124 356 139 329 q 74 558 74 442 q 125 733 74 678 q 225 800 165 776 z "},"f":{"ha":593,"x_min":78,"x_max":518,"o":"m 251 854 q 325 868 281 868 q 458 826 414 868 q 501 767 485 801 q 518 706 518 732 q 501 672 518 678 q 486 669 496 669 q 443 708 457 669 q 408 763 433 736 q 371 790 383 790 q 367 789 368 790 q 335 683 350 775 q 319 499 319 590 l 319 438 l 339 438 q 375 419 375 438 q 349 399 375 404 q 321 383 328 394 q 314 339 314 371 q 315 296 314 313 q 318 247 318 260 q 302 177 318 196 q 244 158 286 158 q 194 190 211 158 q 167 303 178 222 l 158 363 l 124 367 q 78 389 78 372 q 121 414 78 406 l 151 421 l 149 499 l 149 535 q 251 854 149 807 z "},"g":{"ha":656,"x_min":74,"x_max":585,"o":"m 404 753 q 368 760 404 760 q 333 756 343 760 q 301 731 322 751 q 233 574 242 671 q 233 563 233 569 q 232 554 232 557 q 243 526 232 526 q 281 557 253 526 q 362 666 319 599 q 404 753 404 733 m 449 885 q 475 896 463 896 q 519 879 490 894 q 557 851 549 864 q 585 601 585 808 l 585 567 q 569 335 585 397 q 521 215 550 256 q 432 144 492 175 q 336 124 390 124 q 197 169 250 124 q 151 231 175 189 q 121 300 128 272 q 119 316 118 311 q 123 322 119 321 q 138 324 126 324 q 161 315 151 324 q 190 278 171 307 q 248 210 217 239 q 303 176 279 182 q 317 175 307 175 q 381 207 350 175 q 422 286 411 239 q 433 492 433 331 q 426 592 433 588 l 425 592 q 388 550 414 592 q 316 471 347 493 q 243 449 285 449 q 201 453 225 449 q 154 466 168 460 q 121 492 140 472 q 74 601 74 539 q 74 613 74 606 q 75 622 75 619 q 97 711 78 665 q 140 781 115 757 q 288 836 199 836 q 367 825 322 836 q 429 811 419 811 q 432 842 432 811 q 449 885 432 874 z "},"h":{"ha":593,"x_min":72,"x_max":521,"o":"m 144 892 q 189 903 160 903 q 240 888 224 903 l 258 871 l 247 811 q 232 547 232 725 q 244 403 232 403 l 247 406 q 320 503 290 476 q 396 536 350 531 q 403 537 399 536 q 411 538 408 538 q 496 493 469 538 q 521 363 521 451 q 504 225 521 292 q 485 178 496 190 q 454 167 475 167 q 447 167 453 167 q 439 168 442 168 q 410 188 415 171 q 403 281 404 204 q 395 388 401 332 q 383 454 389 444 q 378 457 382 457 q 326 386 361 457 q 272 246 290 315 q 240 204 264 214 q 203 194 214 194 q 161 218 182 194 q 79 449 97 293 q 72 579 72 504 q 92 781 72 693 q 144 892 111 868 z "},"i":{"ha":276,"x_min":74,"x_max":208,"o":"m 99 836 q 133 846 121 846 q 185 825 160 846 q 204 792 208 804 q 144 761 194 761 q 128 763 133 761 q 88 777 103 765 q 74 803 74 789 q 99 836 74 822 m 93 553 q 101 651 93 643 q 140 660 110 660 q 182 651 169 660 q 202 588 197 640 q 207 372 207 535 l 207 174 l 190 165 q 169 161 181 161 q 129 179 140 161 q 108 297 124 188 q 93 553 93 411 z "},"j":{"ha":486,"x_min":76,"x_max":415,"o":"m 247 832 q 293 846 269 846 q 331 834 315 846 q 346 803 346 822 q 290 765 346 765 q 244 776 264 765 q 224 804 224 786 q 247 832 224 817 m 281 689 q 317 703 294 703 q 378 664 361 703 q 414 431 404 600 q 415 397 415 419 q 314 161 415 226 q 238 138 278 138 q 124 185 167 138 q 78 290 85 229 q 76 319 76 301 q 97 371 76 364 q 104 372 100 372 q 140 313 132 372 q 178 229 146 269 q 239 189 211 189 q 251 192 247 189 q 277 241 267 201 q 288 328 288 281 l 288 339 q 278 503 288 400 q 268 644 268 606 q 281 689 268 676 z "},"k":{"ha":540,"x_min":71,"x_max":465,"o":"m 128 904 q 154 908 138 908 q 210 892 200 908 q 218 831 218 881 q 215 739 218 819 q 207 533 208 554 q 204 490 204 494 q 213 467 204 467 q 303 549 221 467 q 375 619 358 606 q 408 632 392 632 q 439 614 439 632 q 364 511 439 586 q 283 435 304 451 q 269 410 258 417 q 308 403 278 403 q 385 410 347 403 q 428 414 414 414 q 453 410 444 414 q 465 399 465 403 q 408 367 465 385 q 322 353 365 353 q 304 353 317 353 q 283 354 292 354 l 206 356 l 210 238 q 213 153 213 157 q 199 110 213 118 q 160 103 185 100 q 133 122 142 106 q 104 214 125 138 q 71 596 71 343 q 86 817 71 740 q 105 881 97 864 q 128 904 113 899 z "},"l":{"ha":433,"x_min":69,"x_max":353,"o":"m 89 886 q 125 897 100 897 q 181 881 160 897 q 203 829 197 865 q 210 706 210 793 q 207 560 210 679 q 206 446 206 517 q 225 243 206 263 q 232 242 226 242 q 269 249 246 242 q 324 257 299 257 q 353 244 353 257 q 313 213 353 236 q 213 189 272 192 q 178 188 199 188 q 133 201 151 188 q 83 310 97 229 q 69 574 69 390 q 89 886 69 867 z "},"m":{"ha":875,"x_min":72,"x_max":806,"o":"m 144 818 q 185 832 165 832 q 226 821 204 832 q 246 796 246 810 q 244 779 246 786 q 226 524 226 650 q 232 446 226 464 q 238 436 235 436 q 268 483 243 436 q 313 544 293 528 q 364 560 333 560 q 439 524 419 560 q 449 508 444 514 q 457 504 454 503 q 476 543 464 507 q 546 676 500 614 q 635 761 592 739 q 697 775 665 775 q 751 760 732 775 q 804 614 799 722 q 806 579 806 603 q 799 481 806 522 q 767 313 789 406 q 732 194 744 221 q 714 167 721 171 q 681 163 707 163 l 644 163 l 642 215 l 642 225 q 650 324 642 260 q 670 458 658 388 q 685 549 682 528 q 689 626 689 585 q 678 721 689 714 l 676 722 l 675 722 q 640 701 665 722 q 599 658 614 679 q 560 590 575 622 q 515 468 540 554 q 483 335 490 382 q 468 281 478 294 q 433 268 458 268 l 424 268 q 379 294 393 271 q 351 389 365 317 l 336 471 l 322 451 q 285 304 293 406 q 269 233 281 253 q 228 206 257 213 q 211 204 222 204 q 144 246 172 204 q 72 553 72 351 q 144 818 72 763 z "},"n":{"ha":681,"x_min":72,"x_max":610,"o":"m 124 789 q 154 796 142 796 l 157 796 q 197 787 174 796 q 225 768 219 778 q 232 618 232 754 l 232 578 q 236 464 232 476 q 249 422 244 422 q 276 492 254 422 q 335 631 301 571 q 397 706 369 692 q 450 717 419 717 q 542 692 506 717 q 591 622 572 671 q 610 513 610 574 q 608 475 610 488 q 584 349 601 415 q 550 257 567 282 q 528 233 536 238 q 499 225 519 228 q 458 229 467 222 q 451 300 451 236 q 453 388 451 351 q 454 479 454 422 q 436 617 454 617 q 388 538 421 617 q 333 376 354 460 q 294 253 306 267 q 249 233 282 239 q 232 232 243 232 q 111 347 161 232 q 72 571 72 435 l 72 592 q 89 740 72 697 q 124 789 104 781 z "},"o":{"ha":565,"x_min":74,"x_max":493,"o":"m 365 678 q 333 703 343 703 q 301 652 324 703 q 265 551 278 601 q 251 458 251 500 q 252 443 251 454 q 253 425 253 432 q 289 281 258 326 q 321 254 307 254 q 354 275 333 254 q 413 485 413 333 q 365 678 413 622 m 211 743 q 289 760 249 760 q 331 755 317 760 q 371 732 344 750 q 433 681 413 703 q 469 621 453 658 q 493 486 493 565 q 461 317 493 389 q 289 196 411 204 q 275 195 283 196 q 264 194 267 194 q 197 213 238 194 q 106 306 139 242 q 74 456 74 371 q 97 604 74 532 q 211 743 129 706 z "},"p":{"ha":601,"x_min":71,"x_max":531,"o":"m 374 699 q 363 711 369 711 q 306 646 342 711 q 251 503 271 581 q 239 439 239 457 q 248 417 239 424 q 286 401 257 411 q 314 397 300 397 q 389 461 365 397 q 399 532 399 490 q 374 699 399 610 m 142 813 q 181 822 164 822 q 228 803 213 822 q 238 768 238 792 q 236 740 238 751 l 233 692 l 267 731 q 321 776 296 764 q 383 789 346 789 q 510 700 463 789 q 527 653 524 671 q 531 589 531 636 q 527 524 531 542 q 508 476 524 506 q 338 349 458 381 q 293 342 315 342 q 267 344 275 342 q 232 353 236 353 q 228 290 228 353 l 228 251 q 229 186 229 222 q 226 152 229 160 q 214 136 224 144 q 174 125 199 122 q 152 135 160 128 q 132 167 144 142 q 94 285 113 201 q 72 503 75 368 q 72 533 72 514 q 71 560 71 551 q 142 813 71 776 z "},"q":{"ha":761,"x_min":75,"x_max":686,"o":"m 521 454 q 496 474 504 474 q 481 378 481 474 l 481 356 q 514 225 483 225 q 547 260 529 225 q 565 338 565 292 q 521 454 565 406 m 371 751 q 331 735 354 751 q 292 692 308 718 q 258 606 272 663 q 243 510 243 550 q 251 474 243 482 q 256 472 253 472 q 333 578 278 472 q 389 729 389 685 q 371 751 389 751 m 456 853 q 479 857 467 857 q 531 843 511 857 q 547 800 547 832 q 514 596 547 754 q 512 576 510 579 q 526 576 514 574 q 607 604 543 581 q 667 622 656 622 q 681 615 674 622 q 686 606 686 610 q 613 564 686 596 q 544 531 554 538 q 543 528 543 529 q 568 490 543 521 q 632 342 632 414 q 618 269 632 306 q 486 161 578 161 q 447 167 475 161 q 336 368 353 192 q 329 424 331 424 q 303 411 328 424 q 228 400 282 400 l 211 400 q 146 421 175 400 q 95 481 115 443 q 75 556 75 518 q 115 719 75 644 q 189 792 140 765 q 293 819 238 819 q 343 814 321 819 q 401 799 386 804 q 428 821 415 796 q 456 853 440 844 z "},"r":{"ha":511,"x_min":71,"x_max":436,"o":"m 157 839 q 192 843 174 843 q 250 826 233 843 q 261 801 261 815 q 253 735 261 786 q 240 619 240 650 q 241 613 240 617 q 242 608 242 610 l 243 608 q 279 632 249 608 q 386 675 335 675 q 421 667 406 675 q 436 650 436 658 q 394 614 436 633 q 310 550 336 586 q 269 435 285 514 q 256 275 256 371 q 249 178 256 196 q 206 151 242 161 q 185 149 192 149 q 135 182 156 149 q 93 299 115 215 q 72 489 76 365 q 71 561 71 515 q 108 779 71 700 q 133 824 124 813 q 157 839 143 835 z "},"s":{"ha":588,"x_min":75,"x_max":515,"o":"m 222 793 q 289 803 247 803 q 364 790 336 803 q 414 752 386 781 q 456 697 442 724 q 472 629 472 664 q 447 578 472 586 q 436 576 443 576 q 399 615 406 576 q 358 708 389 681 q 335 722 344 722 q 292 671 319 722 q 256 536 256 607 q 260 496 256 514 q 271 452 267 463 q 285 442 275 442 q 318 451 292 442 q 413 474 368 474 q 487 450 458 474 q 515 385 515 426 q 507 339 515 364 q 432 241 488 281 q 319 201 376 201 q 265 214 290 201 q 211 269 211 240 q 232 285 211 285 q 274 274 250 285 q 325 260 303 260 q 374 285 350 260 q 403 338 396 313 q 407 371 407 353 q 396 413 407 406 l 393 413 q 342 394 381 413 q 226 367 282 367 q 107 426 142 367 q 75 557 75 482 q 99 672 75 618 q 151 749 122 721 q 222 793 179 778 z "},"t":{"ha":550,"x_min":78,"x_max":475,"o":"m 243 849 q 267 851 251 851 q 304 846 282 851 q 344 818 335 838 q 353 743 353 799 l 353 679 l 397 683 q 422 685 407 685 q 475 664 475 685 q 462 647 475 653 q 403 632 449 642 l 350 621 l 350 408 q 340 186 350 197 q 288 169 326 169 q 264 174 275 169 q 231 215 242 183 q 208 331 219 247 q 192 518 197 417 l 186 603 l 140 607 q 83 622 93 613 q 78 635 78 628 q 143 664 78 657 q 192 678 189 669 q 201 744 193 683 q 243 849 214 840 z "},"u":{"ha":713,"x_min":74,"x_max":643,"o":"m 506 751 q 539 760 511 760 q 593 750 569 760 q 632 717 621 738 q 643 649 643 696 q 626 471 643 594 q 606 265 610 340 q 592 178 600 196 q 558 160 585 160 l 547 160 q 516 167 524 163 q 499 192 508 171 q 464 351 474 236 q 454 397 460 397 l 453 397 q 415 328 449 394 q 306 190 357 213 q 249 181 285 181 q 171 196 204 181 q 74 436 74 242 q 85 585 74 496 q 114 719 99 689 q 169 749 129 749 q 223 736 200 749 q 251 704 246 724 q 253 676 253 700 q 247 560 253 621 q 232 313 232 343 q 238 264 232 286 q 253 238 249 238 q 290 272 264 238 q 339 356 315 307 q 433 564 382 444 q 490 710 485 683 q 506 751 499 742 z "},"v":{"ha":531,"x_min":74,"x_max":460,"o":"m 418 794 q 446 793 431 804 q 460 751 460 783 q 458 710 460 728 q 415 413 454 578 q 358 235 385 276 q 275 194 332 194 q 226 213 247 194 q 181 278 204 232 q 78 669 101 429 q 74 735 74 718 q 81 765 74 757 q 122 782 92 782 q 203 744 179 782 q 290 399 215 726 q 314 338 304 338 q 318 339 317 338 q 348 453 325 346 q 378 614 371 561 q 418 794 399 781 z "},"w":{"ha":861,"x_min":74,"x_max":788,"o":"m 735 808 q 765 825 742 825 q 786 814 782 825 l 786 811 q 788 807 788 808 q 756 615 788 769 q 696 363 724 460 q 656 244 672 278 q 615 200 639 211 q 572 189 590 189 q 472 288 524 189 q 414 488 435 360 q 403 517 408 517 q 396 515 396 517 q 361 378 396 503 q 318 239 326 254 q 291 204 306 214 q 244 190 276 194 q 226 189 238 189 q 194 201 211 189 q 114 396 154 233 q 74 693 74 558 q 85 765 74 749 q 135 782 96 782 l 150 782 q 197 757 186 781 q 221 628 207 733 q 269 343 261 343 q 321 470 275 343 q 381 638 367 597 q 396 694 396 676 q 436 732 396 732 q 524 676 500 732 q 569 512 542 635 q 596 349 596 389 q 603 331 596 331 q 615 351 608 331 q 646 474 621 372 q 735 808 722 781 z "},"x":{"ha":569,"x_min":74,"x_max":494,"o":"m 410 772 q 432 776 419 776 q 474 766 454 776 q 494 742 494 756 q 447 651 494 733 q 356 507 399 569 q 324 447 324 458 q 385 340 324 439 q 454 239 447 242 q 460 231 460 238 q 444 203 460 218 q 413 188 428 188 q 296 297 383 188 q 253 340 263 340 l 251 340 q 197 273 250 339 q 139 204 143 207 q 107 194 126 194 q 82 203 90 194 q 78 214 78 207 q 85 246 78 225 q 104 292 92 267 q 127 336 117 317 q 151 379 138 356 q 167 407 164 403 l 186 443 l 142 532 q 74 722 74 671 q 75 733 74 731 q 97 758 79 749 q 140 768 115 768 q 165 760 157 768 q 192 713 172 751 q 238 615 218 660 q 258 574 253 574 q 289 619 264 574 q 356 717 318 668 q 410 772 394 765 z "},"y":{"ha":567,"x_min":74,"x_max":492,"o":"m 368 731 q 450 790 424 790 q 478 782 464 790 q 492 764 492 775 q 429 676 492 743 l 368 610 l 374 414 q 379 206 379 239 l 379 189 q 335 140 379 140 l 326 140 q 268 209 283 143 q 251 460 253 275 l 251 638 l 214 650 q 124 694 171 665 q 76 736 78 722 q 93 757 74 751 q 106 758 97 758 q 235 708 129 758 l 313 672 l 368 731 z "},"z":{"ha":565,"x_min":72,"x_max":489,"o":"m 247 789 q 344 794 319 794 q 383 789 365 794 q 449 724 449 771 q 432 644 449 700 q 396 546 415 589 q 371 489 379 510 l 360 465 l 400 469 q 410 470 404 469 q 419 471 417 471 q 475 449 475 471 q 388 414 475 425 l 329 406 l 288 328 q 253 244 253 261 q 260 242 253 242 q 326 251 278 242 q 451 271 424 271 q 475 267 467 271 q 489 253 489 260 q 328 197 489 231 q 181 174 218 174 q 142 181 160 174 q 127 189 131 185 q 124 206 124 193 q 126 243 124 207 q 144 343 132 306 q 154 383 154 371 q 151 392 154 389 q 140 394 150 392 q 122 399 129 397 q 97 421 97 406 q 104 432 97 428 q 147 443 111 438 q 184 458 176 447 q 225 554 192 469 q 272 665 244 607 q 289 713 289 701 q 253 721 289 721 q 222 720 244 721 q 186 719 199 719 q 81 743 101 719 q 79 761 72 754 q 247 789 96 778 z "}," ":{"ha":347,"x_min":0,"x_max":0,"o":""}}}
